Coordinates
version=1
nRows=27
nColumns=12
inDegrees=yes

Units are S.I. units (second, meters, Newtons, ...)
Angles are in degrees

endheader
time	SC_y	SC_z	SC_x	AC_y	AC_z	AC_x	GH_y	GH_z	GH_yy	EL_x	PS_y
       0.0              -54.69          2.673          1.558          51.49         -12.58          12.19         -80.64          10.66         -29.44          119.9          152.8
   0.04834              -54.69          2.675           1.56          51.49         -12.58          12.19         -80.61          10.66         -29.44          119.9          152.8
   0.09668              -54.69          2.676          1.563          51.49         -12.58          12.19         -80.58          10.66         -29.43          119.9          152.8
     0.145              -54.69          2.678          1.566          51.49         -12.58          12.19         -80.54          10.66         -29.43          119.9          152.8
    0.1934              -54.69          2.679           1.57          51.49         -12.57          12.18         -80.51          10.67         -29.43          119.9          152.8
    0.2417              -54.69          2.681          1.573          51.49         -12.57          12.18         -80.47          10.67         -29.42          119.9          152.8
    0.2901              -54.69          2.683          1.577          51.49         -12.57          12.18         -80.42          10.67         -29.42          119.8          152.8
    0.3384              -54.69          2.685          1.581          51.49         -12.56          12.17         -80.38          10.67         -29.41          119.8          152.8
    0.3867              -54.69          2.688          1.585          51.49         -12.56          12.17         -80.33          10.67         -29.41          119.8          152.8
    0.4351              -54.69           2.69           1.59          51.49         -12.56          12.17         -80.28          10.68          -29.4          119.8          152.8
    0.4834              -54.69          2.692          1.595          51.49         -12.55          12.16         -80.22          10.68          -29.4          119.8          152.8
    0.5318              -54.69          2.695            1.6          51.49         -12.55          12.16         -80.16          10.68         -29.39          119.7          152.8
    0.5801              -54.69          2.698          1.605           51.5         -12.54          12.16          -80.1          10.69         -29.39          119.7          152.8
    0.6284              -54.69          2.701          1.612           51.5         -12.54          12.15         -80.03          10.69         -29.38          119.7          152.8
    0.6768              -54.69          2.705          1.618           51.5         -12.53          12.15         -79.96          10.69         -29.37          119.7          152.8
    0.7251              -54.69          2.709          1.625           51.5         -12.53          12.14         -79.87           10.7         -29.36          119.6          152.8
    0.7735              -54.68          2.713          1.633           51.5         -12.52          12.13         -79.79           10.7         -29.36          119.6          152.8
    0.8218              -54.68          2.717          1.642           51.5         -12.51          12.13         -79.69          10.71         -29.35          119.5          152.8
    0.8702              -54.68          2.722          1.651           51.5          -12.5          12.12         -79.58          10.71         -29.34          119.5          152.8
    0.9185              -54.68          2.727          1.661           51.5          -12.5          12.11         -79.47          10.72         -29.32          119.5          152.8
    0.9668              -54.68          2.733          1.673           51.5         -12.49           12.1         -79.34          10.72         -29.31          119.4          152.8
     1.015              -54.68           2.74          1.685           51.5         -12.48          12.09          -79.2          10.73          -29.3          119.4          152.8
     1.064              -54.68          2.747          1.698          51.51         -12.46          12.08         -79.05          10.74         -29.28          119.3          152.8
     1.112              -54.68          2.755          1.714          51.51         -12.45          12.07         -78.88          10.75         -29.27          119.2          152.8
      1.16              -54.68          2.764           1.73          51.51         -12.44          12.06         -78.69          10.76         -29.25          119.2          152.8
     1.209              -54.67          2.773          1.749          51.51         -12.42          12.05         -78.48          10.77         -29.23          119.1          152.8
     1.257              -54.67          2.784           1.77          51.51          -12.4          12.03         -78.24          10.78         -29.21          119.0          152.8
